<svg width="99" height="117" viewBox="0 0 99 117" fill="none" xmlns="http://www.w3.org/2000/svg">
<path d="M5.0011 111.104C9.33585 102.434 19.972 85.7976 28.5613 75.0059C33.0923 69.313 36.0869 61.9765 40.1056 52.2735C43.7179 43.5516 50.4558 36.55 53.3256 31.849C53.8273 30.8406 54.4895 29.8472 55.1618 28.6732C55.8341 27.4992 56.4963 26.1747 59.1855 23.8066" stroke="white" stroke-width="10" stroke-linecap="round"/>
<path d="M18.0455 23.8065C25.6714 23.8065 45.0775 21.1575 51.3087 17.4649C57.1212 14.0204 57.5098 8.76528 58.5082 6.76347C59.0479 5.68138 60.1688 4.76166 61.5084 5.07774C70.0117 7.08413 71.5475 18.7693 75.0595 26.1193C77.9092 32.1449 83.8895 46.1224 88.6056 56.3924C89.609 57.9125 90.9335 58.9059 93.3016 61.9362" stroke="white" stroke-width="10" stroke-linecap="round"/>
</svg>
