<svg width="64" height="99" viewBox="0 0 64 99" fill="none" xmlns="http://www.w3.org/2000/svg">
<path d="M17.4739 27.7424C20.4741 32.3983 25.14 51.0217 27.0014 63.8353C28.1666 71.8569 31.5017 76.8897 33.0219 82.0723C34.5119 85.2381 35.5354 88.2684 35.701 90.7719C35.8665 91.9509 36.1977 92.9443 36.5388 93.9678" stroke="white" stroke-width="10" stroke-linecap="round"/>
<path d="M5.43291 51.8244C4.4295 48.172 5.09175 37.4956 8.26254 28.776C11.26 20.5329 15.1259 14.7181 16.4655 9.03377C16.7845 7.68003 17.1327 6.6908 17.9656 6.01349C18.7984 5.33619 20.1229 5.00506 21.3019 5.00004C26.2416 4.97902 31.1605 12.9922 43.0158 22.6902C48.5697 27.4013 53.2356 30.0704 57.2643 32.915C57.9416 33.7529 58.2727 34.7463 58.6139 35.7698" stroke="white" stroke-width="10" stroke-linecap="round"/>
</svg>
