<svg width="105" height="112" viewBox="0 0 105 112" fill="none" xmlns="http://www.w3.org/2000/svg">
<path d="M22.058 21.9011C28.6805 28.5237 35.3031 35.1462 46.165 46.836C57.027 58.5258 71.9277 75.0821 80.5972 85.1012C89.2667 95.1203 91.2535 98.1004 93.2703 100.463C95.2872 102.827 97.274 104.482 99.3209 106.188" stroke="white" stroke-width="10" stroke-linecap="round"/>
<path d="M5 57.0205C5 52.3546 6.98676 39.7216 8.34137 18.4592C8.6797 13.1487 10.0171 9.88003 11.8383 6.70423C14.6595 1.78461 28.3394 8.48529 41.3638 14.5008C56.4952 19.553 67.4626 21.8909 82.1576 23.396C88.5744 23.9078 92.8791 23.9078 97.3142 23.9078" stroke="white" stroke-width="10" stroke-linecap="round"/>
</svg>
