<svg width="96" height="236" viewBox="0 0 96 236" fill="none" xmlns="http://www.w3.org/2000/svg">
<rect width="96" height="236" rx="38" fill="#FFD3B6"/>
<rect x="14" y="73" width="67" height="90" rx="27" fill="white"/>
<circle cx="25" cy="94" r="3" fill="#C0C0C0"/>
<circle cx="36" cy="94" r="3" fill="#C0C0C0"/>
<circle cx="47" cy="94" r="3" fill="#C0C0C0"/>
<circle cx="58" cy="94" r="3" fill="#C0C0C0"/>
<circle cx="69" cy="94" r="3" fill="#C0C0C0"/>
<circle cx="25" cy="110" r="3" fill="#C0C0C0"/>
<circle cx="36" cy="110" r="3" fill="#C0C0C0"/>
<circle cx="47" cy="110" r="3" fill="#C0C0C0"/>
<circle cx="58" cy="110" r="3" fill="#C0C0C0"/>
<circle cx="69" cy="110" r="3" fill="#C0C0C0"/>
<circle cx="25" cy="126" r="3" fill="#C0C0C0"/>
<circle cx="36" cy="126" r="3" fill="#C0C0C0"/>
<circle cx="47" cy="126" r="3" fill="#C0C0C0"/>
<circle cx="58" cy="126" r="3" fill="#C0C0C0"/>
<circle cx="69" cy="126" r="3" fill="#C0C0C0"/>
<circle cx="25" cy="142" r="3" fill="#C0C0C0"/>
<circle cx="36" cy="142" r="3" fill="#C0C0C0"/>
<circle cx="47" cy="142" r="3" fill="#C0C0C0"/>
<circle cx="58" cy="142" r="3" fill="#C0C0C0"/>
<circle cx="69" cy="142" r="3" fill="#C0C0C0"/>
<circle cx="26" cy="21" r="3" fill="#F9FEFC"/>
<circle cx="37" cy="21" r="3" fill="#F9FEFC"/>
<circle cx="48" cy="21" r="3" fill="#F9FEFC"/>
<circle cx="59" cy="21" r="3" fill="#F9FEFC"/>
<circle cx="70" cy="21" r="3" fill="#F9FEFC"/>
<circle cx="31.5" cy="37" r="3" fill="#F9FEFC"/>
<circle cx="42.5" cy="37" r="3" fill="#F9FEFC"/>
<circle cx="53.5" cy="37" r="3" fill="#F9FEFC"/>
<circle cx="64.5" cy="37" r="3" fill="#F9FEFC"/>
<circle cx="26" cy="53" r="3" fill="#F9FEFC"/>
<circle cx="37" cy="53" r="3" fill="#F9FEFC"/>
<circle cx="48" cy="53" r="3" fill="#F9FEFC"/>
<circle cx="59" cy="53" r="3" fill="#F9FEFC"/>
<circle cx="70" cy="53" r="3" fill="#F9FEFC"/>
<circle cx="26" cy="183" r="3" fill="#F9FEFC"/>
<circle cx="37" cy="183" r="3" fill="#F9FEFC"/>
<circle cx="48" cy="183" r="3" fill="#F9FEFC"/>
<circle cx="59" cy="183" r="3" fill="#F9FEFC"/>
<circle cx="70" cy="183" r="3" fill="#F9FEFC"/>
<circle cx="31.5" cy="199" r="3" fill="#F9FEFC"/>
<circle cx="42.5" cy="199" r="3" fill="#F9FEFC"/>
<circle cx="53.5" cy="199" r="3" fill="#F9FEFC"/>
<circle cx="64.5" cy="199" r="3" fill="#F9FEFC"/>
<circle cx="26" cy="215" r="3" fill="#F9FEFC"/>
<circle cx="37" cy="215" r="3" fill="#F9FEFC"/>
<circle cx="48" cy="215" r="3" fill="#F9FEFC"/>
<circle cx="59" cy="215" r="3" fill="#F9FEFC"/>
<circle cx="70" cy="215" r="3" fill="#F9FEFC"/>
</svg>
