<svg width="41" height="41" viewBox="0 0 41 41" fill="none" xmlns="http://www.w3.org/2000/svg">
<path d="M35.3904 32.0195V33.7047H5.05579V32.0195L8.4263 28.6489V18.5374C8.4263 13.3131 11.8474 8.71238 16.8526 7.22935V6.74063C16.8526 5.84671 17.2077 4.98941 17.8398 4.35732C18.4719 3.72522 19.3292 3.37012 20.2231 3.37012C21.117 3.37012 21.9743 3.72522 22.6064 4.35732C23.2385 4.98941 23.5936 5.84671 23.5936 6.74063V7.22935C28.5988 8.71238 32.0199 13.3131 32.0199 18.5374V28.6489L35.3904 32.0195ZM23.5936 35.39C23.5936 36.2839 23.2385 37.1412 22.6064 37.7733C21.9743 38.4054 21.117 38.7605 20.2231 38.7605C19.3292 38.7605 18.4719 38.4054 17.8398 37.7733C17.2077 37.1412 16.8526 36.2839 16.8526 35.39" fill="#FFA72B"/>
</svg>
