<svg width="50" height="46" viewBox="0 0 50 46" fill="none" xmlns="http://www.w3.org/2000/svg">
<g clip-path="url(#clip0_1_154)">
<path d="M4.54352 27.7234C8.32312 33.3912 14.721 39.6474 24.6428 46.2055C34.5647 39.6474 40.9626 33.3912 44.7422 27.7234H36.9643C36.6567 27.7233 36.3562 27.6311 36.1014 27.4587C35.8467 27.2864 35.6494 27.0416 35.535 26.7561L31.0469 15.5375L26.1245 32.7659C26.0365 33.0749 25.8541 33.3486 25.6028 33.5488C25.3514 33.7489 25.0438 33.8655 24.723 33.8821C24.4022 33.8987 24.0841 33.8146 23.8135 33.6415C23.5428 33.4685 23.3331 33.2151 23.2136 32.9169L18.1402 20.2319L13.6028 27.0395C13.462 27.2501 13.2713 27.4227 13.0478 27.542C12.8243 27.6613 12.5748 27.7236 12.3214 27.7234H4.54352Z" fill="#FF3522"/>
<path d="M2.71078 24.6429C-7.47596 5.17508 13.5844 -6.16063 24.0977 3.52093C24.2825 3.69137 24.4632 3.86696 24.6398 4.04767C24.8134 3.86582 24.9942 3.69112 25.182 3.52401C35.7014 -6.16063 56.7587 5.17508 46.5751 24.6429H38.0024L32.2298 10.2084C32.1103 9.91016 31.9006 9.65677 31.6299 9.48369C31.3593 9.31061 31.0413 9.2265 30.7204 9.24313C30.3996 9.25977 30.092 9.37632 29.8407 9.57647C29.5893 9.77662 29.4069 10.0503 29.3189 10.3593L24.3996 27.5878L19.9115 16.3691C19.807 16.1089 19.6334 15.8821 19.4094 15.7133C19.1855 15.5444 18.9197 15.44 18.6407 15.4111C18.3617 15.3823 18.0802 15.4301 17.8264 15.5496C17.5727 15.669 17.3563 15.8554 17.2008 16.0888L11.496 24.6429H2.71078Z" fill="#FF3522"/>
</g>
<defs>
<clipPath id="clip0_1_154">
<rect width="49.2857" height="46" fill="white"/>
</clipPath>
</defs>
</svg>
