<svg width="75" height="75" viewBox="0 0 75 75" fill="none" xmlns="http://www.w3.org/2000/svg">
<path d="M24.8419 68.3151H49.6838C53.0995 68.3151 55.8942 65.5204 55.8942 62.1047V24.8419C59.31 24.8419 62.1047 22.0471 62.1047 18.6314V12.4209C62.1047 9.00516 59.31 6.21045 55.8942 6.21045H18.6314C15.2157 6.21045 12.421 9.00516 12.421 12.4209V18.6314C12.421 22.0471 15.2157 24.8419 18.6314 24.8419V62.1047C18.6314 65.5204 21.4261 68.3151 24.8419 68.3151ZM18.6314 12.4209H55.8942V18.6314H18.6314V12.4209ZM49.6838 24.8419V34.1576H34.1576V52.789H49.6838V62.1047H24.8419V24.8419H49.6838Z" fill="#8D6398"/>
</svg>
