<svg width="53" height="53" viewBox="0 0 53 53" fill="none" xmlns="http://www.w3.org/2000/svg">
<path d="M25.0872 36.5733C25.0872 36.5733 25.8496 39.8188 30.0736 42.2325C32.7361 43.7533 38.3341 45.3312 41.1922 43.2192C44.4459 40.8136 45.1472 38.4325 45.3021 37.5559C45.457 36.6793 44.9922 34.2615 44.9922 34.2615L39.6388 32.3574C39.6388 32.3574 30.7872 34.5184 30.6322 34.5184C30.4814 34.5224 25.0872 36.5733 25.0872 36.5733Z" fill="#E06767"/>
<path d="M45.0085 38.5997C45.1268 38.2939 45.2002 38.0329 45.2532 37.8168C44.3072 37.564 43.2105 37.1563 42.2156 36.7323C42.2972 36.6956 42.3787 36.6589 42.4562 36.6181C42.9454 36.3694 43.4266 36.0799 43.7731 35.6559C44.1482 35.1992 44.3195 34.6081 44.2991 34.0169L39.6388 32.3574C39.6388 32.3574 30.7871 34.5184 30.6322 34.5184C30.4773 34.5184 25.0872 36.5692 25.0831 36.5733C25.0138 36.5977 25.5846 37.7964 25.6213 37.8576C26.1391 38.8239 27.3297 40.1694 28.1451 40.8992C28.1451 40.8992 27.77 40.0348 28.4794 39.7127C28.7934 39.57 29.1726 39.6394 29.4947 39.7657C30.302 40.0879 31.3131 41.3273 33.841 42.6565C35.5575 43.5617 37.3229 44.2548 37.8938 44.2303C38.6562 44.1977 40.0384 43.8267 40.0384 43.8267C40.0384 43.8267 38.277 43.6595 35.4474 42.3426C34.5912 41.943 31.4232 40.3855 31.1215 39.517C31.0359 39.2724 30.7301 38.8402 31.2846 38.5956C32.1326 38.2164 34.4444 40.2102 36.43 41.1235C38.7948 42.208 41.3716 43.0765 41.3716 43.0765C41.6489 42.8644 41.9098 42.6524 42.1545 42.4404C40.8375 42.102 39.5491 41.6372 38.3056 41.0949C37.0661 40.5567 35.8511 39.8595 34.7298 39.093C34.0163 38.6037 33.523 37.7801 34.2895 37.6741C35.5453 37.4988 37.168 38.6934 38.7948 39.5374C40.2626 40.2999 42.024 40.6505 43.6753 40.8584C43.8873 40.5934 44.2339 40.0879 44.2339 40.0879C44.2339 40.0879 43.61 39.9818 41.7671 39.5741C40.9598 39.3947 40.177 39.1623 39.4594 38.7587C39.2719 38.6527 38.6154 37.9799 39.5124 37.6701C40.4094 37.3602 41.2616 37.9758 42.6152 38.2898C43.9729 38.6119 44.9963 38.6282 45.0085 38.5997Z" fill="#B05353"/>
<path d="M48.1113 21.7323C48.1113 21.7323 48.0094 18.4297 46.2358 15.5064C44.7068 12.9866 42.5255 12.7298 42.5255 12.7298C42.5255 12.7298 42.0933 11.1437 40.5766 9.92871C39.0599 8.7137 35.9408 7.69847 35.9408 7.69847C29.6945 4.88518 25.8007 7.18881 25.8007 7.18881C25.8007 7.18881 16.5372 4.98711 9.12075 11.2783C9.12075 11.2783 5.37785 13.0396 3.84889 16.3667C3.0049 18.2096 3.36778 21.2145 3.36778 21.2145C0.77058 24.2316 1.4841 29.0101 4.39932 31.4035C5.78965 32.541 7.50617 33.2953 9.29607 33.4869C9.99735 33.5603 10.3521 33.3932 10.6456 34.1067C11.0778 35.1586 11.4162 36.2391 12.2847 36.9934C13.1694 37.7599 14.201 38.3552 15.2978 38.7629C17.4261 39.5498 19.8316 39.6354 21.9803 38.8648C22.6938 38.608 24.9812 38.5835 24.9812 38.5835C24.9812 38.5835 26.1921 39.5824 30.4895 39.4234C34.7869 39.2644 36.6013 37.4092 37.5839 37.0627C38.3382 36.7977 39.2637 36.2146 40.0873 36.3655C40.5562 36.4511 40.9762 36.6917 41.4043 36.8955C42.603 37.4704 43.9485 37.7844 45.2695 37.662C50.2641 37.2013 50.79 31.4483 50.2967 27.4934C49.7993 23.5018 48.1113 21.7323 48.1113 21.7323Z" fill="#FFB3B3"/>
<path d="M11.2205 29.5397C11.1186 29.7721 10.0993 31.9983 9.24309 32.3571C7.76305 32.9809 5.47165 31.4968 4.59504 31.0891C4.4238 31.0075 4.30964 31.2114 4.30964 31.2114C4.16693 31.3949 4.53796 31.7741 4.72551 31.9086C5.45126 32.4305 7.19224 33.6129 8.48472 33.935C10.1523 34.3509 11.404 33.935 11.404 33.935C11.404 33.935 11.8607 30.5957 11.8974 30.4449C11.9341 30.294 11.8974 28.9648 11.8974 28.9648L11.2205 29.5397Z" fill="#EA6363"/>
<path d="M25.7885 38.9618C25.7885 38.9618 24.9486 38.8314 23.6602 38.8518C22.3718 38.8721 20.5574 39.2432 20.5574 39.2432C20.5574 39.2432 21.8377 38.6601 22.4085 38.1505C22.9793 37.6367 23.0934 36.3891 22.9997 35.6471C22.9018 34.8887 22.6449 34.5054 20.7042 34.1018L26.5183 33.7797C24.5694 35.0762 24.2147 37.7468 25.7885 38.9618ZM43.3899 26.6935C42.3787 26.828 41.3961 26.6364 40.5236 26.1186C40.1444 25.8902 40.1036 25.3521 40.438 25.0626C40.6622 24.8709 40.9843 24.8587 41.233 25.0218C42.6438 25.9473 44.0789 25.3398 44.8455 24.8628C46.8025 23.6437 47.7729 21.4828 47.6424 19.2158C48.0339 19.9089 48.3193 20.6755 48.3886 21.4665C48.5639 23.3868 47.1817 24.8832 45.6365 25.8495C44.8985 26.3143 44.136 26.5956 43.3899 26.6935Z" fill="#F07371"/>
<path d="M47.7607 28.6067C47.3204 28.6067 46.8433 28.513 46.3908 28.2357C45.9259 27.9503 45.665 27.567 45.4326 27.0941C45.241 26.7067 44.9719 26.4662 44.4785 26.5029C44.132 26.5314 43.7976 26.7271 43.4511 26.6782C43.9118 25.8628 44.6498 25.2104 45.5182 24.8557C45.9178 24.6926 46.3663 24.5907 46.774 24.7171C46.8189 25.0025 46.6272 25.2675 46.5171 25.5366C46.3255 26.0136 46.403 26.5844 46.7129 26.9921C46.9249 27.2694 47.3285 27.567 47.6995 27.5426C47.9442 27.5263 48.1154 27.3183 48.356 27.2979C49.1021 27.2449 49.2897 28.3376 48.5558 28.5089C48.3193 28.566 48.0502 28.6067 47.7607 28.6067ZM40.5848 13.4884C40.2871 13.5251 39.9854 13.4924 39.8305 13.2315C39.6307 12.8931 39.7979 12.4691 40.1689 12.3386C41.1923 11.9798 42.3421 12.045 43.341 12.4446C44.2135 12.7952 44.7395 13.3905 45.086 13.7942C45.4326 14.1978 45.6691 14.9969 45.6691 14.9969C44.8006 14.2426 44.3073 13.0562 40.5848 13.4884ZM36.6788 12.7015C35.7981 12.6648 36.6543 12.7015 36.6462 12.7015C35.2518 12.7015 33.5842 12.2203 33.3599 10.6302C32.9563 7.73539 37.2292 8.8607 38.7949 9.0768C38.7949 9.0768 37.5595 7.80878 35.9408 7.69869C35.1865 7.64977 34.4078 7.67015 33.6739 7.86586C32.8666 8.08195 32.4589 8.68946 31.725 8.99117C31.1705 9.21542 30.5385 9.1298 29.9677 8.95856C29.4417 8.79954 27.7333 7.88217 27.6844 9.02379C27.6722 9.33774 27.8964 9.60684 28.2022 9.65169C29.4417 9.82701 31.1541 10.3815 31.7902 11.5639C32.0838 12.1062 32.1531 12.7626 31.9818 13.3538C31.9003 13.6433 31.782 14.0143 32.0226 14.1978C32.2061 14.3405 32.4874 14.2467 32.6546 14.0836C32.8217 13.9205 32.9277 13.7004 33.0949 13.5373C33.6168 13.0236 34.0898 13.3905 34.6443 13.5862C35.2844 13.8145 35.9612 13.9246 36.6421 13.9246C36.6584 13.9246 35.4475 13.8064 36.6869 13.9246C37.9223 14.0388 37.5554 12.7381 36.6788 12.7015ZM17.0795 11.3723C16.4027 10.7607 16.0806 8.37959 18.0255 7.15234C18.0255 7.15234 16.9654 7.18904 16.0806 7.88217C15.3263 8.47337 15.1755 9.49675 15.3549 10.5772C15.3997 10.8545 15.1836 11.1073 14.9023 11.0909C13.8911 11.0379 12.8841 11.2214 12.0156 11.621C11.6854 11.7759 11.5712 12.1918 11.7669 12.5017C11.8476 12.6269 11.9713 12.7184 12.1147 12.759C12.2581 12.7995 12.4113 12.7863 12.5457 12.7218C13.5201 12.2733 14.939 12.0328 16.0765 12.3182C17.2304 12.6077 18.0418 12.942 18.9469 14.5117C19.1018 14.7768 19.4362 14.8705 19.689 14.6993C19.8847 14.5647 19.9662 14.312 19.8847 14.0918C19.11 11.9553 17.9928 12.1959 17.0795 11.3723ZM19.6033 18.7154C19.5815 18.6373 19.5443 18.5644 19.494 18.5009C19.4437 18.4374 19.3812 18.3845 19.3102 18.3454C19.2392 18.3063 19.1612 18.2818 19.0806 18.2732C19 18.2646 18.9185 18.2722 18.8409 18.2954C17.8624 18.589 16.4476 18.5034 15.8156 17.8673C14.9716 15.9143 14.3315 15.5677 13.3081 15.2212C12.9004 15.0826 12.4927 15.4332 12.5334 15.8572C12.5579 16.0978 12.7169 16.3016 12.9493 16.371C13.6751 16.5871 14.4049 17.5615 14.78 18.5564C15.1225 19.4574 15.1632 20.6439 14.3886 21.492C14.1888 21.7121 14.148 22.0302 14.3233 22.2707L14.3315 22.2829C14.5557 22.5928 15.0042 22.6173 15.2652 22.3359C15.5424 22.0342 15.8319 21.6428 15.9542 21.2473C16.0806 20.8274 16.0439 20.4523 16.4068 20.1179C16.8104 19.7428 17.1937 19.8203 17.6789 19.8203C18.1763 19.8203 18.7104 19.6409 19.1793 19.4737C19.4973 19.3718 19.7012 19.0334 19.6033 18.7154ZM7.10256 24.2441C6.96393 24.2441 6.82938 24.24 6.68668 24.2278C4.79892 24.0647 3.80816 22.707 3.35966 21.2188C2.91117 19.7306 3.29035 18.1119 3.29035 18.1119C3.86116 22.5153 6.15664 22.9516 6.79269 23.0087C7.99547 23.1147 9.14525 22.5928 9.4592 21.7978C9.95662 20.542 8.43174 19.3106 7.6856 18.5482C7.19226 18.0426 7.00878 17.1823 7.13925 16.5014C7.20449 16.1508 7.35943 15.8083 7.64891 15.5841C7.93431 15.3639 8.65191 15.1641 8.55405 15.792C8.52551 15.9877 8.39912 16.1508 8.32165 16.3302C7.76307 17.6023 9.74868 18.7806 10.291 19.7224C10.7354 20.4849 10.9311 21.4063 10.5967 22.2463C10.1238 23.445 8.69268 24.2441 7.10256 24.2441Z" fill="#F07371"/>
<path d="M6.66627 23.9183C6.99653 23.9591 7.33494 23.902 7.63258 23.7553C7.91798 23.6166 8.17485 23.3965 8.4888 23.372C8.63965 23.3638 8.82721 23.4535 8.80274 23.6003C8.79459 23.6533 9.14115 23.7512 9.0963 23.7797C8.28493 24.2853 6.23001 24.7868 7.64889 28.4278C7.76305 28.7172 7.67335 29.0434 7.40833 29.2024C7.09846 29.39 6.68666 29.2677 6.53988 28.9374C6.15254 28.0853 5.96499 27.1434 5.97722 26.2057C5.98945 25.2924 6.08323 24.4932 5.47165 23.7308C5.40641 23.6533 5.3371 23.5432 5.3901 23.4576C5.42272 23.4046 5.48795 23.3842 5.54911 23.3679C5.8019 23.3027 6.071 23.2334 6.32786 23.2864C6.44203 23.3108 7.7182 24.0162 7.73043 23.9917M43.0392 29.8059C42.1953 29.7039 41.3268 29.7651 40.5277 30.0668C39.8509 30.3237 39.3453 30.8415 38.5665 30.6702C38.1017 30.5683 37.6899 30.2707 37.4004 29.8915C36.7889 29.0964 36.8704 28.2606 37.0987 27.3554C37.327 26.4585 37.3026 25.4188 36.8989 24.5748C36.7929 24.3505 36.6135 24.1507 36.3811 24.0692C36.1447 23.9877 35.8552 24.057 35.7165 24.2649C35.5779 24.4769 35.6309 24.7583 35.6798 25.007C35.8389 25.7694 36.0427 26.593 35.8144 27.3391C35.5983 28.0486 35.3007 28.6846 34.791 29.231C33.8247 30.2707 32.4221 30.7477 31.2112 30.4419C30.3183 30.2177 29.5966 29.5938 29.1114 28.6398C28.9402 27.8936 28.7608 26.9233 27.8353 26.8173C27.6477 26.7969 27.4438 26.8254 27.3011 26.9436C27.1584 27.066 27.0932 27.2617 27.0932 27.4492C27.0932 27.9181 27.5417 28.2687 27.6232 28.7295C27.8801 30.1402 26.9423 31.7548 25.5194 32.5376C24.4185 33.1451 21.3973 33.4876 18.69 31.2166C18.5759 31.1187 18.5759 30.9312 18.4658 30.8292C18.3924 30.764 18.2986 30.7232 18.2048 30.7069C17.8012 30.6295 17.3812 31.0127 17.4179 31.4204C17.4506 31.7915 17.7563 32.0769 18.0295 32.3297C18.739 32.9902 18.4209 33.2552 18.2986 33.6099C18.2701 33.6996 18.2171 33.7812 18.2089 33.8749C18.1845 34.1359 18.584 34.0503 18.845 34.0299C19.1059 34.0095 19.3424 33.8668 19.5952 33.7934C19.9132 33.7037 21.3688 34.2378 21.6542 34.299C22.4819 34.4784 22.7673 34.5599 23.4808 34.5599C24.3737 34.5599 25.1321 35.0206 25.7844 34.4091C26.714 33.5406 27.4357 32.9739 28.2593 32.6925C28.667 32.5539 29.1563 32.4846 29.4988 32.7496C29.7434 32.9372 29.8535 33.2511 29.9391 33.5447C30.1144 34.1481 30.2449 34.7638 30.5018 35.3387C30.7586 35.9095 31.1664 36.4436 31.7372 36.7005C31.9166 36.782 32.1204 36.835 32.3161 36.7902C32.5118 36.7453 32.6831 36.5781 32.6872 36.3824C32.6912 36.2479 32.6219 36.1256 32.5485 36.0155C32.2672 35.567 31.9329 35.1511 31.6842 34.6863C31.4355 34.2215 31.2724 33.6792 31.3743 33.1614C31.5618 32.2033 32.6709 31.9342 33.4659 31.6936C34.2284 31.4612 34.9908 31.025 35.8103 31.0698C36.3241 31.0983 37.4127 31.6977 37.7388 32.0973C37.8041 32.1788 37.8326 32.2807 37.8489 32.3868C37.9876 33.247 37.3556 34.0217 36.7562 34.6496C36.6502 34.7597 36.5401 34.9269 36.6298 35.0533C36.6625 35.0981 36.7114 35.1226 36.7603 35.1389C37.1925 35.306 37.6981 35.1593 38.065 34.8779C38.8723 34.2664 39.1536 33.2185 39.8427 32.4928C40.4094 31.9016 41.1719 31.5142 41.9425 31.2614C44.6987 30.3563 44.8414 32.5254 45.3347 33.7404C45.8281 34.9554 46.5579 34.1155 46.5661 33.7812C46.5946 32.1951 45.5794 30.1076 43.0392 29.8059Z" fill="#F07371"/>
<path d="M17.2263 36.2418C16.8063 36.2174 16.5291 35.7811 16.7003 35.3938C16.9735 34.774 17.4872 34.1584 18.1518 33.6854C19.1629 32.9678 20.1741 32.8374 21.1893 33.1268L21.3973 34.1625C20.7408 33.9749 19.5666 34.1828 18.8612 34.6843C18.3516 35.0472 18.0009 35.4916 17.8297 35.8627C17.7196 36.1032 17.4872 36.2581 17.2263 36.2418Z" fill="#F07371"/>
<path d="M43.6304 17.451C43.553 16.9332 43.1493 16.4521 42.6274 16.4358C42.3706 16.4277 42.0852 16.5622 42.0158 16.8109C41.9832 16.921 41.9995 17.0433 42.0036 17.1575C42.0362 18.0055 41.3553 18.8251 40.5154 18.9433C39.5654 19.0779 38.8641 18.4907 38.1466 18.0015C37.4616 17.5367 36.6054 17.2227 35.8144 16.9985C33.7064 16.4073 31.8921 16.8028 30.5099 18.5437C29.9962 19.192 29.5069 19.9015 28.7852 20.301C27.6518 20.9289 25.2584 20.9738 24.5531 19.7424C23.6275 18.1319 23.5949 13.1822 26.5631 13.7448C27.4805 13.9202 28.1614 14.7152 28.2267 15.3064C28.2674 15.6815 28.035 16.0077 27.7374 16.2605C27.6277 16.3545 27.5552 16.4846 27.5328 16.6273C27.5103 16.7701 27.5395 16.9161 27.6151 17.0392C27.8108 17.3613 28.2511 17.4307 28.5365 17.1901C29.3724 16.4725 29.5028 15.7182 29.4417 15.1719C29.25 13.4309 27.2889 12.4483 25.7314 12.4034C25.3889 12.3912 24.9934 12.2811 24.8629 11.959C24.8059 11.8204 24.814 11.6695 24.8018 11.5227C24.7202 10.4831 23.6561 9.35366 22.8243 8.81546C22.5185 8.61568 22.1067 8.74615 21.9477 9.07233C21.8132 9.35366 21.9192 9.68391 22.1801 9.85516C22.9711 10.377 23.4522 11.1354 23.6112 12.1139C23.7906 13.2393 23.546 14.389 23.073 15.4124C22.8365 15.9262 22.5471 16.4236 22.2087 16.8802C21.9192 17.2757 21.5074 17.5407 21.3198 18.0137C21.2994 18.0667 21.279 18.1238 21.2954 18.1768C21.3239 18.2787 21.4503 18.3073 21.5563 18.3113C21.858 18.3236 22.1597 18.2583 22.4288 18.1319C22.2739 18.7313 22.6735 19.3143 23.0037 19.8362C23.334 20.3581 23.599 21.0675 23.2239 21.5609C23.2076 21.5813 23.1872 21.6017 23.1709 21.6261C22.3677 21.9645 21.593 22.4253 20.9896 23.0613C19.9499 24.1622 19.1793 25.1529 17.6585 25.6422C16.313 26.0785 14.8166 26.0255 13.5078 25.4995C13.2551 25.3976 12.9982 25.2793 12.725 25.2875C12.4518 25.2956 12.1624 25.4873 12.1542 25.7604C12.1501 25.8991 12.2194 26.0255 12.2806 26.1518C12.9737 27.5585 11.7016 28.4718 11.1594 29.695C10.6497 30.8366 10.3888 32.0883 10.3888 33.34C10.3888 34.7059 10.8576 35.7007 12.5497 37.4376C13.3162 38.2204 14.3192 38.6853 15.1632 38.9584C15.4282 39.0441 15.5954 38.6812 15.3589 38.5303C13.6179 37.4213 13.3448 36.4387 12.8147 35.4275C11.5426 32.9934 12.933 29.2832 15.3263 27.3995C16.2518 26.6737 17.5647 26.7308 18.6819 27.1141C19.8806 27.5259 20.59 28.4066 21.4911 29.2261C21.7357 29.4503 22.0496 29.6909 22.3636 29.593C22.649 29.5074 22.7917 29.169 22.7591 28.8754C22.7265 28.5819 22.5593 28.3209 22.4003 28.0722C22.225 27.799 22.0496 27.5259 21.8702 27.2527C21.6378 26.8939 21.3973 26.5188 21.3239 26.0948C21.2424 25.634 21.6501 24.0398 25.5234 23.0532C26.1799 22.886 26.8485 22.9594 27.5091 23.1469C28.3979 23.3997 29.0339 24.0521 29.7801 24.5617C29.988 24.7044 30.2163 24.8553 30.4691 24.8634C30.7872 24.8757 31.097 24.6351 31.1623 24.3212C31.252 23.889 30.9258 23.5016 30.7097 23.1184C29.9921 21.8544 30.8279 20.1665 31.8839 19.3592C32.8298 18.6416 34.0734 18.3766 35.2517 18.4989C37.0457 18.6824 38.8152 19.8811 39.227 21.6343C39.3208 22.0298 39.435 22.5394 39.8386 22.5924C40.2871 22.6536 40.5277 22.0542 40.4828 21.6017C40.438 21.1491 40.2912 20.6394 40.5725 20.2806C40.703 20.1175 40.8987 20.0238 41.0903 19.9381C41.6407 19.6976 42.2156 19.4978 42.709 19.1512C43.2023 18.8088 43.6141 18.2828 43.6508 17.6834C43.6467 17.6141 43.6427 17.5326 43.6304 17.451Z" fill="#EA6363"/>
<path d="M21.5522 18.3074C21.854 18.3197 22.1557 18.2544 22.4248 18.128C22.2698 18.7274 22.6694 19.3104 22.9997 19.8323C23.2402 20.2156 23.5745 20.8965 23.2117 21.5937C23.2117 21.5937 23.758 21.2879 24.6428 21.031C25.5275 20.7742 26.3919 20.7171 26.3919 20.7171C25.764 20.5866 24.8344 20.2319 24.549 19.7385C23.6235 18.128 23.5909 13.1783 26.5591 13.7409C27.4765 13.9162 28.1574 14.7113 28.2226 15.3025C28.2634 15.6776 28.031 16.0038 27.7333 16.2566C27.6237 16.3506 27.5511 16.4807 27.5287 16.6234C27.5063 16.7661 27.5355 16.9122 27.611 17.0353C27.8067 17.3574 28.2471 17.4267 28.5325 17.1862C29.3683 16.4686 29.4988 15.7143 29.4376 15.168C29.246 13.427 27.2848 12.4444 25.7273 12.3995C25.3848 12.3873 24.9893 12.2772 24.8589 11.9551C24.8018 11.8165 24.8099 11.6656 24.7977 11.5188C24.7162 10.4791 23.652 9.34975 22.8203 8.81156C22.5145 8.61177 22.1027 8.74224 21.9437 9.06842C21.8091 9.34975 21.9151 9.68001 22.1761 9.85125C22.967 10.3731 23.4482 11.1315 23.6072 12.11C23.7866 13.2354 23.5419 14.3851 23.069 15.4085C22.8325 15.9222 22.543 16.4197 22.2046 16.8763C21.9151 17.2718 21.5033 17.5368 21.3158 18.0098C21.2954 18.0628 21.275 18.1199 21.2913 18.1729C21.3198 18.2748 21.4462 18.3034 21.5522 18.3074Z" fill="#F07371"/>
</svg>
