<svg width="55" height="55" viewBox="0 0 55 55" fill="none" xmlns="http://www.w3.org/2000/svg">
<rect y="9.71167" width="55" height="45" rx="4" fill="#01AD92" fill-opacity="0.69"/>
<path d="M4 9.86206H51C53.1263 9.86206 54.8496 11.5854 54.8496 13.7117V20.5613H0.150391V13.7117C0.150391 11.5854 1.8737 9.86206 4 9.86206Z" fill="white" stroke="#808080" stroke-width="0.3"/>
<path d="M13.6392 14.9189C13.2487 15.3094 12.6155 15.3094 12.225 14.9189C11.8345 14.5284 11.8345 13.8952 12.225 13.5047L12.9321 14.2118L13.6392 14.9189ZM12.9321 14.2118L12.225 13.5047C15.2327 10.4969 16.0984 7.95178 15.9686 6.12644C15.8404 4.32233 14.7284 3.00234 13.2639 2.38276C11.7885 1.75859 10.0055 1.86913 8.59453 2.92003C7.19781 3.96035 6 6.0537 6 9.71179L5 9.71179L4 9.71179C4 5.61988 5.35619 2.83823 7.39985 1.31606C9.4293 -0.195546 11.973 -0.335009 14.0432 0.540823C16.1242 1.42124 17.7764 3.35126 17.9636 5.98464C18.1493 8.59681 16.8815 11.6766 13.6392 14.9189L12.9321 14.2118Z" fill="#01AD92"/>
<path d="M25.0712 14.9189C24.6807 15.3094 24.0475 15.3094 23.657 14.9189C23.2665 14.5284 23.2665 13.8952 23.657 13.5047L24.3641 14.2118L25.0712 14.9189ZM24.3641 14.2118L23.657 13.5047C26.6647 10.4969 27.5304 7.95178 27.4006 6.12644C27.2724 4.32233 26.1604 3.00234 24.6959 2.38276C23.2206 1.75859 21.4375 1.86913 20.0265 2.92003C18.6298 3.96035 17.432 6.0537 17.432 9.71179L16.432 9.71179L15.432 9.71179C15.432 5.61988 16.7882 2.83823 18.8319 1.31606C20.8613 -0.195546 23.405 -0.335009 25.4752 0.540823C27.5562 1.42124 29.2084 3.35126 29.3956 5.98464C29.5813 8.59681 28.3135 11.6766 25.0712 14.9189L24.3641 14.2118Z" fill="#01AD92"/>
<path d="M37.0712 14.9189C36.6807 15.3094 36.0475 15.3094 35.657 14.9189C35.2665 14.5284 35.2665 13.8952 35.657 13.5047L36.3641 14.2118L37.0712 14.9189ZM36.3641 14.2118L35.657 13.5047C38.6647 10.4969 39.5304 7.95178 39.4006 6.12644C39.2724 4.32233 38.1604 3.00234 36.6959 2.38276C35.2206 1.75859 33.4375 1.86913 32.0265 2.92003C30.6298 3.96035 29.432 6.0537 29.432 9.71179L28.432 9.71179L27.432 9.71179C27.432 5.61988 28.7882 2.83823 30.8319 1.31606C32.8613 -0.195546 35.405 -0.335009 37.4752 0.540823C39.5562 1.42124 41.2084 3.35126 41.3956 5.98464C41.5813 8.59681 40.3135 11.6766 37.0712 14.9189L36.3641 14.2118Z" fill="#01AD92"/>
<path d="M49.0712 14.9189C48.6807 15.3094 48.0475 15.3094 47.657 14.9189C47.2665 14.5284 47.2665 13.8952 47.657 13.5047L48.3641 14.2118L49.0712 14.9189ZM48.3641 14.2118L47.657 13.5047C50.6647 10.4969 51.5304 7.95178 51.4006 6.12644C51.2724 4.32233 50.1604 3.00234 48.6959 2.38276C47.2206 1.75859 45.4375 1.86913 44.0265 2.92003C42.6298 3.96035 41.432 6.0537 41.432 9.71179L40.432 9.71179L39.432 9.71179C39.432 5.61988 40.7882 2.83823 42.8319 1.31606C44.8613 -0.195546 47.405 -0.335009 49.4752 0.540823C51.5562 1.42124 53.2084 3.35126 53.3956 5.98464C53.5813 8.59681 52.3135 11.6766 49.0712 14.9189L48.3641 14.2118Z" fill="#01AD92"/>
<rect x="16" y="25.7117" width="22" height="22" rx="7" fill="white"/>
<g clip-path="url(#clip0_1_163)">
<path fill-rule="evenodd" clip-rule="evenodd" d="M25 29.7117C24.8674 29.7117 24.7402 29.7643 24.6464 29.8581C24.5527 29.9519 24.5 30.0791 24.5 30.2117V34.2117H20.5C20.3674 34.2117 20.2402 34.2643 20.1464 34.3581C20.0527 34.4519 20 34.5791 20 34.7117V38.7117C20 38.8443 20.0527 38.9715 20.1464 39.0652C20.2402 39.159 20.3674 39.2117 20.5 39.2117H24.5V43.2117C24.5 43.3443 24.5527 43.4715 24.6464 43.5652C24.7402 43.659 24.8674 43.7117 25 43.7117H29C29.1326 43.7117 29.2598 43.659 29.3536 43.5652C29.4473 43.4715 29.5 43.3443 29.5 43.2117V39.2117H33.5C33.6326 39.2117 33.7598 39.159 33.8536 39.0652C33.9473 38.9715 34 38.8443 34 38.7117V34.7117C34 34.5791 33.9473 34.4519 33.8536 34.3581C33.7598 34.2643 33.6326 34.2117 33.5 34.2117H29.5V30.2117C29.5 30.0791 29.4473 29.9519 29.3536 29.8581C29.2598 29.7643 29.1326 29.7117 29 29.7117H25Z" fill="#01AD92"/>
</g>
<defs>
<clipPath id="clip0_1_163">
<rect width="14" height="14" fill="white" transform="translate(20 29.7117)"/>
</clipPath>
</defs>
</svg>
