<svg width="60" height="60" viewBox="0 0 60 60" fill="none" xmlns="http://www.w3.org/2000/svg">
<path d="M22.8509 26.3594L27.3576 24.7199L28.9971 20.2132C29.0349 20.1103 29.1034 20.0214 29.1934 19.9587C29.2833 19.8959 29.3903 19.8623 29.5 19.8623C29.6097 19.8623 29.7167 19.8959 29.8066 19.9587C29.8966 20.0214 29.9651 20.1103 30.0029 20.2132L31.6424 24.7199L36.1491 26.3594C36.252 26.3972 36.3409 26.4657 36.4036 26.5557C36.4664 26.6456 36.5 26.7526 36.5 26.8623C36.5 26.972 36.4664 27.079 36.4036 27.1689C36.3409 27.2589 36.252 27.3274 36.1491 27.3652L31.6424 29.0047L30.0029 33.5114C29.9651 33.6143 29.8966 33.7032 29.8066 33.7659C29.7167 33.8287 29.6097 33.8623 29.5 33.8623C29.3903 33.8623 29.2833 33.8287 29.1934 33.7659C29.1034 33.7032 29.0349 33.6143 28.9971 33.5114L27.3576 29.0047L22.8509 27.3652C22.748 27.3274 22.6591 27.2589 22.5964 27.1689C22.5336 27.079 22.5 26.972 22.5 26.8623C22.5 26.7526 22.5336 26.6456 22.5964 26.5557C22.6591 26.4657 22.748 26.3972 22.8509 26.3594Z" fill="#D6E8F1" stroke="#0B78A8" stroke-width="2.76145" stroke-linecap="round" stroke-linejoin="round"/>
<path d="M14 49.8L17.81 46.7525L17.835 46.7325C18.63 46.095 19.0325 45.775 19.48 45.5475C19.8817 45.3425 20.305 45.1942 20.75 45.1025C21.2475 45 21.765 45 22.805 45H44.5075C47.3025 45 48.7025 45 49.77 44.455C50.7108 43.9756 51.4756 43.2108 51.955 42.27C52.5 41.2 52.5 39.8 52.5 37.01V17.9925C52.5 15.1975 52.5 13.7975 51.955 12.73C51.475 11.7889 50.7092 11.0239 49.7675 10.545C48.7 10 47.3 10 44.5 10H15.5C12.7 10 11.3 10 10.23 10.545C9.28923 11.0244 8.52436 11.7892 8.045 12.73C7.5 13.8 7.5 15.2 7.5 18V46.6775C7.5 49.3425 7.5 50.675 8.045 51.3575C8.27935 51.6517 8.57709 51.8893 8.91602 52.0525C9.25495 52.2157 9.62633 52.3003 10.0025 52.3C10.8775 52.3 11.9175 51.465 14 49.8Z" stroke="#0B78A8" stroke-width="4" stroke-linecap="round" stroke-linejoin="round"/>
<g clip-path="url(#clip0_1_142)">
<rect width="17" height="16" transform="translate(39.5 2.8623)" fill="#D6E8F1"/>
<path d="M42.9132 9.75775L46.7431 8.36446L48.1364 4.53453C48.1686 4.44706 48.2268 4.37157 48.3033 4.31824C48.3797 4.26492 48.4706 4.23633 48.5638 4.23633C48.657 4.23633 48.748 4.26492 48.8244 4.31824C48.9008 4.37157 48.9591 4.44706 48.9912 4.53453L50.3845 8.36446L54.2145 9.75775C54.3019 9.78993 54.3774 9.84816 54.4308 9.92459C54.4841 10.001 54.5127 10.092 54.5127 10.1852C54.5127 10.2784 54.4841 10.3693 54.4308 10.4457C54.3774 10.5222 54.3019 10.5804 54.2145 10.6126L50.3845 12.0059L48.9912 15.8358C48.9591 15.9233 48.9008 15.9988 48.8244 16.0521C48.748 16.1054 48.657 16.134 48.5638 16.134C48.4706 16.134 48.3797 16.1054 48.3033 16.0521C48.2268 15.9988 48.1686 15.9233 48.1364 15.8358L46.7431 12.0059L42.9132 10.6126C42.8257 10.5804 42.7502 10.5222 42.6969 10.4457C42.6436 10.3693 42.615 10.2784 42.615 10.1852C42.615 10.092 42.6436 10.001 42.6969 9.92459C42.7502 9.84816 42.8257 9.78993 42.9132 9.75775Z" fill="#D6E8F1" stroke="#0B78A8" stroke-width="2.34677" stroke-linecap="round" stroke-linejoin="round"/>
</g>
<defs>
<clipPath id="clip0_1_142">
<rect width="17" height="16" fill="white" transform="translate(39.5 2.8623)"/>
</clipPath>
</defs>
</svg>
