<svg width="65" height="65" viewBox="0 0 65 65" fill="none" xmlns="http://www.w3.org/2000/svg">
<g clip-path="url(#clip0_1_127)">
<path d="M57.7312 61.3394C57.7312 62.2963 57.351 63.2141 56.6744 63.8907C55.9977 64.5674 55.0799 64.9476 54.123 64.9476H10.8246C9.86767 64.9476 8.94991 64.5674 8.27325 63.8907C7.59658 63.2141 7.21643 62.2963 7.21643 61.3394V12.6287C7.21643 11.6718 7.59658 10.754 8.27325 10.0773C8.94991 9.40066 9.86767 9.02051 10.8246 9.02051H54.123C55.0799 9.02051 55.9977 9.40066 56.6744 10.0773C57.351 10.754 57.7312 11.6718 57.7312 12.6287V61.3394Z" fill="#C1694F"/>
<path d="M52.3189 57.7313C52.3189 58.2098 52.1288 58.6687 51.7905 59.007C51.4522 59.3454 50.9933 59.5354 50.5148 59.5354H14.4328C13.9544 59.5354 13.4955 59.3454 13.1571 59.007C12.8188 58.6687 12.6287 58.2098 12.6287 57.7313V16.2371C12.6287 15.7586 12.8188 15.2997 13.1571 14.9614C13.4955 14.6231 13.9544 14.433 14.4328 14.433H50.5148C50.9933 14.433 51.4522 14.6231 51.7905 14.9614C52.1288 15.2997 52.3189 15.7586 52.3189 16.2371V57.7313Z" fill="white"/>
<path d="M45.1025 5.4123H37.8861C37.8861 3.97687 37.3159 2.60023 36.3009 1.58522C35.2859 0.570222 33.9092 0 32.4738 0C31.0384 0 29.6617 0.570222 28.6467 1.58522C27.6317 2.60023 27.0615 3.97687 27.0615 5.4123H19.8451C18.8882 5.4123 17.9704 5.79244 17.2937 6.46911C16.6171 7.14578 16.2369 8.06354 16.2369 9.02049V18.041H48.7107V9.02049C48.7107 8.06354 48.3305 7.14578 47.6539 6.46911C46.9772 5.79244 46.0595 5.4123 45.1025 5.4123Z" fill="#CCD6DD"/>
<path d="M32.4738 9.02059C34.4666 9.02059 36.082 7.40515 36.082 5.4124C36.082 3.41964 34.4666 1.8042 32.4738 1.8042C30.4811 1.8042 28.8656 3.41964 28.8656 5.4124C28.8656 7.40515 30.4811 9.02059 32.4738 9.02059Z" fill="#292F33"/>
<g clip-path="url(#clip1_1_127)">
<path fill-rule="evenodd" clip-rule="evenodd" d="M29.0984 25.6066C28.8823 25.6066 28.6751 25.6924 28.5223 25.8452C28.3695 25.998 28.2837 26.2052 28.2837 26.4213V32.9394H21.7656C21.5495 32.9394 21.3423 33.0252 21.1895 33.178C21.0367 33.3308 20.9509 33.538 20.9509 33.7541V40.2721C20.9509 40.4882 21.0367 40.6955 21.1895 40.8483C21.3423 41.0011 21.5495 41.0869 21.7656 41.0869H28.2837V47.6049C28.2837 47.821 28.3695 48.0283 28.5223 48.181C28.6751 48.3338 28.8823 48.4197 29.0984 48.4197H35.6164C35.8325 48.4197 36.0398 48.3338 36.1926 48.181C36.3454 48.0283 36.4312 47.821 36.4312 47.6049V41.0869H42.9492C43.1653 41.0869 43.3726 41.0011 43.5253 40.8483C43.6781 40.6955 43.764 40.4882 43.764 40.2721V33.7541C43.764 33.538 43.6781 33.3308 43.5253 33.178C43.3726 33.0252 43.1653 32.9394 42.9492 32.9394H36.4312V26.4213C36.4312 26.2052 36.3454 25.998 36.1926 25.8452C36.0398 25.6924 35.8325 25.6066 35.6164 25.6066H29.0984Z" fill="#FF3522"/>
</g>
</g>
<defs>
<clipPath id="clip0_1_127">
<rect width="64.9475" height="64.9475" fill="white"/>
</clipPath>
<clipPath id="clip1_1_127">
<rect width="22.8131" height="22.8131" fill="white" transform="translate(20.9509 25.6066)"/>
</clipPath>
</defs>
</svg>
