<svg width="67" height="67" viewBox="0 0 67 67" fill="none" xmlns="http://www.w3.org/2000/svg">
<path d="M5.56128 40.3203C5.56128 41.9635 5.88494 43.5906 6.51377 45.1088C7.1426 46.6269 8.0643 48.0063 9.22623 49.1682C11.5729 51.5149 14.7556 52.8332 18.0742 52.8332H51.442C53.9056 52.8376 56.2791 51.9076 58.0839 50.2308C59.8887 48.5539 60.9904 46.255 61.1668 43.7978C61.3432 41.3406 60.5812 38.9079 59.0344 36.9904C57.4876 35.073 55.2713 33.8135 52.8323 33.466C52.8595 28.7354 51.1629 24.1569 48.0598 20.5863C44.9567 17.0156 40.6595 14.6973 35.9714 14.0646C31.2832 13.4319 26.5252 14.5282 22.5866 17.1485C18.6479 19.7688 15.7984 23.7338 14.5706 28.3023C11.9705 29.0606 9.68674 30.6421 8.0622 32.8092C6.43765 34.9762 5.56008 37.6119 5.56128 40.3203Z" fill="#FFF9EF"/>
<path d="M5.56128 40.3203C5.56128 41.9635 5.88494 43.5906 6.51377 45.1088C7.1426 46.6269 8.0643 48.0063 9.22623 49.1682C11.5729 51.5149 14.7556 52.8332 18.0742 52.8332H51.442C53.9056 52.8376 56.2791 51.9076 58.0839 50.2308C59.8887 48.5539 60.9904 46.255 61.1668 43.7978C61.3432 41.3406 60.5812 38.9079 59.0344 36.9904C57.4876 35.073 55.2713 33.8135 52.8323 33.466C52.8595 28.7354 51.1629 24.1569 48.0598 20.5863C44.9567 17.0156 40.6595 14.6973 35.9714 14.0646C31.2832 13.4319 26.5252 14.5282 22.5866 17.1485C18.6479 19.7688 15.7984 23.7338 14.5706 28.3023C11.9705 29.0606 9.68674 30.6421 8.0622 32.8092C6.43765 34.9762 5.56008 37.6119 5.56128 40.3203Z" fill="#FFF9EF" stroke="black" stroke-width="2" stroke-linejoin="round"/>
</svg>
