<svg width="47" height="47" viewBox="0 0 47 47" fill="none" xmlns="http://www.w3.org/2000/svg">
<path d="M29.3751 4.896V7.8335C29.3751 10.6026 29.3751 11.9871 30.2367 12.8468C31.0945 13.7085 32.479 13.7085 35.2501 13.7085H38.1876" stroke="#0B78A8" stroke-width="2.9375" stroke-linecap="round" stroke-linejoin="round"/>
<path d="M15.6667 21.5415H31.3333M15.6667 27.4165H31.3333M15.6667 33.2915H23.8329M7.83333 31.3332V15.6665C7.83333 10.1283 7.83333 7.3573 9.5547 5.63788C11.2741 3.9165 14.0452 3.9165 19.5833 3.9165H27.7535C28.5525 3.9165 28.954 3.9165 29.3143 4.06534C29.6727 4.21417 29.9566 4.49617 30.5226 5.06409L38.0191 12.5606C38.587 13.1285 38.869 13.4105 39.0178 13.7708C39.1667 14.1292 39.1667 14.5307 39.1667 15.3297V31.3332C39.1667 36.8713 39.1667 39.6424 37.4453 41.3618C35.7259 43.0832 32.9548 43.0832 27.4167 43.0832H19.5833C14.0452 43.0832 11.2741 43.0832 9.5547 41.3618C7.83333 39.6424 7.83333 36.8713 7.83333 31.3332Z" stroke="#0B78A8" stroke-width="2.9375" stroke-linecap="round" stroke-linejoin="round"/>
</svg>
