<svg width="27" height="27" viewBox="0 0 27 27" fill="none" xmlns="http://www.w3.org/2000/svg">
<path opacity="0.3" d="M22.0694 8.82608L13.2416 14.3434L4.41386 8.82608V19.8608H22.0694V8.82608ZM22.0694 6.61914H4.41386L13.2416 12.1255L22.0694 6.61914Z" fill="#3B3B3B"/>
<path d="M4.41385 22.0686H22.0694C23.2832 22.0686 24.2763 21.0755 24.2763 19.8617V6.62003C24.2763 5.40621 23.2832 4.41309 22.0694 4.41309H4.41385C3.20003 4.41309 2.20691 5.40621 2.20691 6.62003V19.8617C2.20691 21.0755 3.20003 22.0686 4.41385 22.0686ZM22.0694 6.62003L13.2416 12.1263L4.41385 6.62003H22.0694ZM4.41385 8.82697L13.2416 14.3443L22.0694 8.82697V19.8617H4.41385V8.82697Z" fill="#3B3B3B"/>
</svg>
