<svg width="27" height="27" viewBox="0 0 27 27" fill="none" xmlns="http://www.w3.org/2000/svg">
<path d="M13.2417 2.20703C11.7926 2.20703 10.3577 2.49245 9.01886 3.047C7.68007 3.60154 6.46361 4.41436 5.43895 5.43902C3.36954 7.50843 2.20695 10.3152 2.20695 13.2417C2.20695 18.1191 5.37392 22.2571 9.75469 23.7247C10.3064 23.813 10.483 23.4709 10.483 23.173V21.3081C7.42637 21.9702 6.77532 19.8295 6.77532 19.8295C6.26773 18.5494 5.55047 18.2074 5.55047 18.2074C4.54631 17.5232 5.62771 17.5453 5.62771 17.5453C6.73118 17.6225 7.31602 18.6819 7.31602 18.6819C8.27604 20.3591 9.89815 19.8626 10.5271 19.5977C10.6264 18.8805 10.9133 18.3949 11.2223 18.1191C8.77261 17.8432 6.20152 16.8942 6.20152 12.69C6.20152 11.4652 6.62084 10.4831 7.33809 9.6996C7.22775 9.42373 6.84153 8.27612 7.44844 6.78644C7.44844 6.78644 8.37536 6.4885 10.483 7.91198C11.3547 7.66921 12.3037 7.54783 13.2417 7.54783C14.1796 7.54783 15.1286 7.66921 16.0003 7.91198C18.108 6.4885 19.0349 6.78644 19.0349 6.78644C19.6418 8.27612 19.2556 9.42373 19.1452 9.6996C19.8625 10.4831 20.2818 11.4652 20.2818 12.69C20.2818 16.9053 17.6997 17.8322 15.2389 18.108C15.6362 18.4501 16.0003 19.1232 16.0003 20.1495V23.173C16.0003 23.4709 16.1769 23.824 16.7397 23.7247C21.1204 22.2461 24.2764 18.1191 24.2764 13.2417C24.2764 11.7926 23.9909 10.3577 23.4364 9.01894C22.8819 7.68015 22.069 6.46369 21.0444 5.43902C20.0197 4.41436 18.8033 3.60154 17.4645 3.047C16.1257 2.49245 14.6908 2.20703 13.2417 2.20703Z" fill="#3B3B3B"/>
</svg>
