<svg width="56" height="56" viewBox="0 0 56 56" fill="none" xmlns="http://www.w3.org/2000/svg">
<path d="M50.5606 1.30587H5.23042C4.20191 1.2954 3.21125 1.69337 2.47582 2.41246C1.74039 3.13155 1.32026 4.11301 1.30762 5.1415V50.6548C1.32255 51.6817 1.74369 52.661 2.47887 53.3782C3.21405 54.0954 4.2034 54.4922 5.23042 54.4817H50.5606C51.5892 54.4898 52.5792 54.0905 53.3142 53.371C54.0493 52.6514 54.4696 51.6702 54.4834 50.6417V5.12842C54.4651 4.10295 54.0427 3.12616 53.3082 2.41038C52.5736 1.69459 51.5862 1.29766 50.5606 1.30587ZM17.0729 46.6361H9.17938V21.2381H17.0729V46.6361ZM13.1501 17.7773C12.2448 17.7782 11.3595 17.5105 10.6063 17.0081C9.85313 16.5058 9.26585 15.7913 8.91879 14.9551C8.57173 14.1189 8.48048 13.1986 8.65657 12.3105C8.83267 11.4224 9.26821 10.6066 9.90808 9.96608C10.548 9.32559 11.3634 8.88928 12.2513 8.71234C13.1392 8.53539 14.0596 8.62577 14.8962 8.97204C15.7327 9.3183 16.4477 9.90489 16.9508 10.6576C17.4539 11.4103 17.7224 12.2953 17.7224 13.2007C17.7212 13.8024 17.6014 14.398 17.3698 14.9534C17.1382 15.5088 16.7994 16.0131 16.3727 16.4374C15.946 16.8617 15.4398 17.1976 14.8831 17.426C14.3264 17.6545 13.7301 17.7709 13.1283 17.7686L13.1501 17.7773ZM46.6378 46.6361H38.7443V34.2792C38.7443 31.3371 38.692 27.5494 34.6428 27.5494C30.5935 27.5494 29.9049 30.7574 29.9049 34.0874V46.6361H22.0244V21.2381H29.591V24.725H29.6957C30.7505 22.7287 33.3221 20.6235 37.1621 20.6235C45.1559 20.6061 46.6378 25.867 46.6378 32.6883V46.6361Z" fill="#0B3C5D"/>
</svg>
