<svg width="62" height="62" viewBox="0 0 62 62" fill="none" xmlns="http://www.w3.org/2000/svg">
<path d="M23.8789 9.03564C23.5366 9.03564 23.2082 9.17163 22.9662 9.4137C22.7241 9.65576 22.5881 9.98406 22.5881 10.3264V20.6524C22.5881 20.9947 22.7241 21.323 22.9662 21.5651C23.2082 21.8071 23.5366 21.9431 23.8789 21.9431H33.5595C36.6404 21.9431 39.5952 23.167 41.7737 25.3456C43.9523 27.5241 45.1762 30.4789 45.1762 33.5598V52.2757C45.1762 52.618 45.3122 52.9463 45.5542 53.1883C45.7963 53.4304 46.1246 53.5664 46.4669 53.5664H56.7929C57.1352 53.5664 57.4636 53.4304 57.7056 53.1883C57.9477 52.9463 58.0837 52.618 58.0837 52.2757V33.5598C58.0837 20.016 47.1033 9.03564 33.5595 9.03564H23.8789Z" fill="#2B7E6F"/>
<path fill-rule="evenodd" clip-rule="evenodd" d="M10.326 43.8857C10.326 43.201 10.598 42.5444 11.0822 42.0603C11.5663 41.5762 12.2229 41.3042 12.9075 41.3042H46.467C47.1516 41.3042 47.8082 41.5762 48.2923 42.0603C48.7765 42.5444 49.0484 43.201 49.0484 43.8857C49.0484 44.5703 48.7765 45.227 48.2923 45.7111C47.8082 46.1952 47.1516 46.4672 46.467 46.4672H12.9075C12.2229 46.4672 11.5663 46.1952 11.0822 45.7111C10.598 45.227 10.326 44.5703 10.326 43.8857Z" fill="#2B7E6F"/>
<path d="M6.4538 55.5023C6.4538 54.2503 6.69258 53.2706 6.99849 52.5349C7.61805 51.0376 9.12306 50.5717 10.2512 50.5407C12.8533 50.4697 19.52 50.3394 33.5595 50.3394C47.5989 50.3394 54.2656 50.4684 56.8691 50.5407C57.9959 50.5717 59.5009 51.0376 60.1217 52.5349C60.4264 53.2706 60.6651 54.2516 60.6651 55.5023C60.6651 56.7544 60.4264 57.734 60.1205 58.4698C59.5009 59.967 57.9959 60.433 56.8678 60.464C54.2669 60.535 47.6002 60.6653 33.5595 60.6653C19.5187 60.6653 12.8533 60.5363 10.2512 60.464C9.12306 60.433 7.61805 59.967 6.99849 58.4698C6.69258 57.734 6.4538 56.7531 6.4538 55.5023Z" fill="#36D9C0"/>
<path d="M23.2334 0.64569C22.175 0.64569 21.3012 0.694738 20.5964 0.764438C18.8165 0.938689 17.6716 2.39723 17.589 4.08424C17.5148 5.73075 17.4687 7.37842 17.4509 9.02651C17.416 11.5306 19.4515 13.5532 21.9427 13.5532H24.5242C27.0179 13.5532 29.0521 11.5306 29.0173 9.02651C28.999 7.37841 28.9525 5.73075 28.8779 4.08424C28.7965 2.39723 27.6517 0.938689 25.8717 0.764438C24.9956 0.682095 24.116 0.642465 23.236 0.64569H23.2334Z" fill="#2B7E6F"/>
<path d="M23.2335 9.03591C21.5775 9.02726 19.922 9.09272 18.2718 9.23211C16.1382 9.42572 14.5855 11.0856 14.4383 13.1792C14.3144 14.9127 14.1982 17.6852 14.1982 21.9434C14.1982 26.2016 14.3157 28.9741 14.4383 30.7076C14.5855 32.8011 16.1382 34.461 18.2718 34.6547C19.4632 34.7618 21.0947 34.8508 23.2335 34.8508C25.3722 34.8508 27.0037 34.7618 28.1951 34.6547C30.3287 34.461 31.8815 32.8011 32.0286 30.7088C32.1525 28.9728 32.2687 26.2003 32.2687 21.9434C32.2687 17.6865 32.1512 14.9127 32.0286 13.1792C31.8815 11.0856 30.3287 9.42572 28.1951 9.23211C26.545 9.09272 24.8894 9.02726 23.2335 9.03591Z" fill="#36D9C0"/>
</svg>
