<svg width="69" height="69" viewBox="0 0 69 69" fill="none" xmlns="http://www.w3.org/2000/svg">
<path d="M54.4157 40.0963C52.7164 40.0963 51.0552 39.5924 49.6423 38.6483C48.2293 37.7042 47.1281 36.3623 46.4778 34.7924C45.8274 33.2224 45.6573 31.4948 45.9888 29.8282C46.3203 28.1615 47.1386 26.6305 48.3403 25.4289C49.5419 24.2273 51.0728 23.409 52.7395 23.0775C54.4061 22.746 56.1337 22.9161 57.7037 23.5664C59.2737 24.2167 60.6155 25.318 61.5596 26.7309C62.5037 28.1439 63.0076 29.805 63.0076 31.5044C63.0054 33.7824 62.0994 35.9665 60.4886 37.5773C58.8778 39.1881 56.6937 40.094 54.4157 40.0963ZM22.9119 42.9603C18.356 42.955 13.9883 41.1428 10.7669 37.9214C7.54542 34.6999 5.73327 30.3322 5.72797 25.7764V8.5925C5.72797 7.83292 6.02971 7.10446 6.56681 6.56736C7.10391 6.03026 7.83237 5.72852 8.59195 5.72852H14.3199C15.0795 5.72852 15.808 6.03026 16.3451 6.56736C16.8822 7.10446 17.1839 7.83292 17.1839 8.5925C17.1839 9.35207 16.8822 10.0805 16.3451 10.6176C15.808 11.1547 15.0795 11.4565 14.3199 11.4565H11.4559V25.7764C11.4559 28.8147 12.6629 31.7286 14.8113 33.877C16.9597 36.0254 19.8736 37.2323 22.9119 37.2323C25.9502 37.2323 28.864 36.0254 31.0124 33.877C33.1608 31.7286 34.3678 28.8147 34.3678 25.7764V11.4565H31.5038C30.7442 11.4565 30.0158 11.1547 29.4787 10.6176C28.9416 10.0805 28.6398 9.35207 28.6398 8.5925C28.6398 7.83292 28.9416 7.10446 29.4787 6.56736C30.0158 6.03026 30.7442 5.72852 31.5038 5.72852H37.2318C37.9914 5.72852 38.7198 6.03026 39.2569 6.56736C39.794 7.10446 40.0958 7.83292 40.0958 8.5925V25.7764C40.0905 30.3322 38.2783 34.6999 35.0569 37.9214C31.8354 41.1428 27.4677 42.955 22.9119 42.9603Z" fill="#7F7F7F"/>
<path d="M54.4157 40.0963C53.438 40.0849 52.4694 39.9067 51.5517 39.5693V44.3923C51.5517 47.8104 50.1939 51.0885 47.7769 53.5054C45.36 55.9224 42.0819 57.2802 38.6638 57.2802C35.2457 57.2802 31.9676 55.9224 29.5506 53.5054C27.1337 51.0885 25.7758 47.8104 25.7758 44.3923V42.7025C23.882 43.0462 21.9417 43.0462 20.0479 42.7025V44.3923C20.0479 49.3295 22.0092 54.0645 25.5003 57.5557C28.9915 61.0469 33.7265 63.0082 38.6638 63.0082C43.601 63.0082 48.336 61.0469 51.8272 57.5557C55.3183 54.0645 57.2797 49.3295 57.2797 44.3923V39.5693C56.3619 39.9067 55.3934 40.0849 54.4157 40.0963Z" fill="black"/>
</svg>
