<svg width="67" height="67" viewBox="0 0 67 67" fill="none" xmlns="http://www.w3.org/2000/svg">
<path d="M0 33.1122C0 41.8933 3.48829 50.3148 9.69748 56.524C15.9067 62.7332 24.3281 66.2215 33.1093 66.2215C41.8904 66.2215 50.3119 62.7332 56.521 56.524C62.7302 50.3148 66.2185 41.8933 66.2185 33.1122C66.2185 24.3311 62.7302 15.9096 56.521 9.70041C50.3119 3.49122 41.8904 0.00292969 33.1093 0.00292969C24.3281 0.00292969 15.9067 3.49122 9.69748 9.70041C3.48829 15.9096 0 24.3311 0 33.1122Z" fill="#FFDDDA"/>
<path fill-rule="evenodd" clip-rule="evenodd" d="M54.3229 1.79549C54.222 1.38886 54.0149 1.01633 53.7228 0.716002C53.4307 0.415678 53.064 0.198346 52.6604 0.0862393C52.2567 -0.0258675 51.8305 -0.0287243 51.4253 0.0779611C51.0202 0.184646 50.6506 0.397044 50.3545 0.693425L40.8947 10.1532C40.6062 10.4423 40.3975 10.8012 40.289 11.1949C40.1804 11.5887 40.1756 12.0038 40.2751 12.3999L41.9779 19.2299L41.9117 19.2961L30.6025 30.6053C29.9759 31.2778 29.6347 32.1672 29.6509 33.0862C29.6672 34.0052 30.0395 34.8821 30.6894 35.532C31.3394 36.182 32.2162 36.5543 33.1352 36.5705C34.0543 36.5867 34.9437 36.2456 35.6162 35.619L46.9348 24.3145L47.001 24.2436L53.8263 25.9511C54.2224 26.0506 54.6375 26.0458 55.0312 25.9372C55.425 25.8286 55.7838 25.6199 56.073 25.3314L65.5327 15.8717C65.8304 15.5757 66.0438 15.2058 66.1512 14.8C66.2586 14.3942 66.2561 13.9672 66.1439 13.5627C66.0317 13.1582 65.8139 12.7909 65.5128 12.4985C65.2117 12.206 64.8382 11.9989 64.4307 11.8985L56.3473 9.88361L54.3229 1.79549ZM34.6087 3.59285C34.6737 4.53112 34.3634 5.45679 33.7461 6.16636C33.1288 6.87592 32.2549 7.3113 31.3167 7.37677C26.3749 7.71924 21.6353 9.4732 17.661 12.4303C13.6868 15.3873 10.645 19.4231 8.89705 24.0581C7.14913 28.6932 6.76857 33.7326 7.80059 38.5775C8.83261 43.4225 11.2338 47.8693 14.7189 51.3897C18.204 54.9101 22.6265 57.3559 27.4608 58.4367C32.2951 59.5174 37.3381 59.1876 41.9905 57.4864C46.6429 55.7852 50.7091 52.7842 53.706 48.8399C56.7029 44.8957 58.5045 40.174 58.8967 35.2358C58.9713 34.2975 59.4157 33.4273 60.132 32.8166C60.8482 32.2058 61.7778 31.9047 62.7161 31.9793C63.6544 32.054 64.5247 32.4983 65.1354 33.2146C65.7461 33.9308 66.0473 34.8604 65.9726 35.7987C65.4721 42.0905 63.1759 48.1064 59.357 53.1316C55.538 58.1568 50.3568 61.9801 44.4288 64.1473C38.5009 66.3145 32.0754 66.7344 25.9159 65.3573C19.7563 63.9801 14.1215 60.8637 9.6809 56.3783C5.24034 51.893 2.18068 46.2272 0.865447 40.054C-0.449791 33.8809 0.034674 27.46 2.26128 21.5541C4.48789 15.6483 8.36305 10.5057 13.4264 6.73738C18.4897 2.96907 24.5283 0.73345 30.8248 0.296114C31.7631 0.231131 32.6887 0.541408 33.3983 1.15873C34.1079 1.77605 34.5432 2.65462 34.6087 3.59285ZM31.4302 19.192C31.6002 19.6259 31.683 20.089 31.674 20.5549C31.6649 21.0207 31.5642 21.4803 31.3775 21.9072C31.1908 22.3341 30.9219 22.7201 30.586 23.0431C30.2501 23.3661 29.8539 23.6197 29.42 23.7895C27.8688 24.398 26.4937 25.3834 25.4189 26.6567C24.3442 27.9301 23.6037 29.4512 23.2644 31.0825C22.9251 32.7139 22.9977 34.4041 23.4756 36.0004C23.9535 37.5966 24.8216 39.0486 26.0016 40.2251C27.1815 41.4017 28.6361 42.2656 30.2337 42.7388C31.8314 43.2121 33.5218 43.2797 35.1521 42.9357C36.7825 42.5916 38.3014 41.8467 39.5716 40.7683C40.8418 39.6898 41.8233 38.3118 42.4272 36.7589C42.5962 36.3247 42.849 35.928 43.1712 35.5916C43.4935 35.2551 43.8788 34.9854 44.3053 34.7979C44.7318 34.6103 45.191 34.5086 45.6568 34.4985C46.1226 34.4885 46.5858 34.5703 47.0199 34.7392C47.4541 34.9082 47.8508 35.161 48.1872 35.4832C48.5237 35.8055 48.7934 36.1908 48.981 36.6173C49.1685 37.0438 49.2702 37.503 49.2803 37.9688C49.2903 38.4346 49.2086 38.8978 49.0396 39.3319C48.008 41.9839 46.3318 44.337 44.1624 46.1784C41.993 48.0198 39.3989 49.2915 36.6146 49.8786C33.8302 50.4656 30.9435 50.3495 28.2153 49.5407C25.4872 48.7319 23.0036 47.2559 20.9891 45.2461C18.9747 43.2364 17.4928 40.7563 16.6776 38.03C15.8624 35.3037 15.7395 32.4173 16.32 29.6316C16.9005 26.8459 18.1662 24.2488 20.0025 22.0751C21.8388 19.9014 24.1879 18.2196 26.8375 17.1818C27.7131 16.84 28.6886 16.8598 29.5498 17.2367C30.4109 17.6136 31.0872 18.3169 31.4302 19.192Z" fill="#FF3522"/>
</svg>
